<mxfile host="app.diagrams.net" modified="2022-03-09T12:24:39.645Z" agent="5.0 (Windows)" etag="ixS-D6Ac_3xlMrNpRubs" version="17.0.0" type="github">
  <diagram id="q9J8Ffbd_gBDLKt9Fktd" name="Page-1">
    <mxGraphModel dx="506" dy="560" grid="1" gridSize="10" guides="1" tooltips="1" connect="1" arrows="1" fold="1" page="1" pageScale="1" pageWidth="850" pageHeight="1100" math="0" shadow="0">
      <root>
        <mxCell id="0" />
        <mxCell id="1" parent="0" />
        <mxCell id="ZToptgFXe-wDIXdU4-Pa-22" style="edgeStyle=orthogonalEdgeStyle;rounded=0;orthogonalLoop=1;jettySize=auto;html=1;exitX=0.5;exitY=0;exitDx=0;exitDy=0;exitPerimeter=0;entryX=0;entryY=0.5;entryDx=0;entryDy=0;strokeWidth=3;" edge="1" parent="1" source="ZToptgFXe-wDIXdU4-Pa-2" target="ZToptgFXe-wDIXdU4-Pa-11">
          <mxGeometry relative="1" as="geometry" />
        </mxCell>
        <mxCell id="ZToptgFXe-wDIXdU4-Pa-23" style="edgeStyle=orthogonalEdgeStyle;rounded=0;orthogonalLoop=1;jettySize=auto;html=1;exitX=0.5;exitY=1;exitDx=0;exitDy=0;exitPerimeter=0;entryX=0;entryY=0.5;entryDx=0;entryDy=0;strokeWidth=3;" edge="1" parent="1" source="ZToptgFXe-wDIXdU4-Pa-2" target="ZToptgFXe-wDIXdU4-Pa-13">
          <mxGeometry relative="1" as="geometry" />
        </mxCell>
        <mxCell id="ZToptgFXe-wDIXdU4-Pa-2" value="" style="strokeWidth=2;html=1;shape=mxgraph.flowchart.start_2;whiteSpace=wrap;" vertex="1" parent="1">
          <mxGeometry x="475" y="155" width="30" height="30" as="geometry" />
        </mxCell>
        <mxCell id="ZToptgFXe-wDIXdU4-Pa-3" value="" style="strokeWidth=2;html=1;shape=mxgraph.flowchart.start_2;whiteSpace=wrap;" vertex="1" parent="1">
          <mxGeometry x="770" y="145" width="50" height="50" as="geometry" />
        </mxCell>
        <mxCell id="ZToptgFXe-wDIXdU4-Pa-4" value="" style="strokeWidth=2;html=1;shape=mxgraph.flowchart.start_2;whiteSpace=wrap;fillColor=#000000;" vertex="1" parent="1">
          <mxGeometry x="780" y="155" width="30" height="30" as="geometry" />
        </mxCell>
        <mxCell id="ZToptgFXe-wDIXdU4-Pa-24" style="edgeStyle=orthogonalEdgeStyle;rounded=0;orthogonalLoop=1;jettySize=auto;html=1;exitX=1;exitY=0.5;exitDx=0;exitDy=0;entryX=0.5;entryY=0;entryDx=0;entryDy=0;entryPerimeter=0;strokeWidth=3;" edge="1" parent="1" source="ZToptgFXe-wDIXdU4-Pa-11" target="ZToptgFXe-wDIXdU4-Pa-3">
          <mxGeometry relative="1" as="geometry" />
        </mxCell>
        <mxCell id="ZToptgFXe-wDIXdU4-Pa-11" value="&lt;div&gt;&lt;font size=&quot;3&quot;&gt;&lt;font style=&quot;font-size: 24px&quot;&gt;pause_&lt;/font&gt;&lt;/font&gt;&lt;/div&gt;&lt;div&gt;&lt;font size=&quot;3&quot;&gt;&lt;font style=&quot;font-size: 24px&quot;&gt;resume&lt;/font&gt;&lt;/font&gt;&lt;/div&gt;" style="rounded=1;whiteSpace=wrap;html=1;fillColor=#FFFFFF;strokeWidth=3;" vertex="1" parent="1">
          <mxGeometry x="562" y="80" width="150" height="60" as="geometry" />
        </mxCell>
        <mxCell id="ZToptgFXe-wDIXdU4-Pa-25" style="edgeStyle=orthogonalEdgeStyle;rounded=0;orthogonalLoop=1;jettySize=auto;html=1;exitX=1;exitY=0.5;exitDx=0;exitDy=0;entryX=0.5;entryY=1;entryDx=0;entryDy=0;entryPerimeter=0;strokeWidth=3;" edge="1" parent="1" source="ZToptgFXe-wDIXdU4-Pa-13" target="ZToptgFXe-wDIXdU4-Pa-3">
          <mxGeometry relative="1" as="geometry" />
        </mxCell>
        <mxCell id="ZToptgFXe-wDIXdU4-Pa-13" value="&lt;div&gt;&lt;font size=&quot;3&quot;&gt;&lt;font style=&quot;font-size: 24px&quot;&gt;save_game_&lt;/font&gt;&lt;/font&gt;&lt;/div&gt;&lt;div&gt;&lt;font size=&quot;3&quot;&gt;&lt;font style=&quot;font-size: 24px&quot;&gt;state&lt;br&gt;&lt;/font&gt;&lt;/font&gt;&lt;/div&gt;" style="rounded=1;whiteSpace=wrap;html=1;fillColor=#FFFFFF;strokeWidth=3;" vertex="1" parent="1">
          <mxGeometry x="562" y="195" width="150" height="60" as="geometry" />
        </mxCell>
      </root>
    </mxGraphModel>
  </diagram>
</mxfile>
